<svg width="566" height="631" viewBox="0 0 566 631" fill="none" xmlns="http://www.w3.org/2000/svg">
<rect x="20.4258" y="461" width="520" height="157" stroke="black" stroke-width="26"/>
<rect x="20.4258" y="461" width="520" height="157" stroke="url(#paint0_linear_169_23)" stroke-width="26"/>
<path d="M284.027 336.083C291.413 338.088 297.977 341.017 302.622 344.259C304.929 345.869 306.951 347.686 308.318 349.674C309.673 351.642 310.694 354.266 309.924 357.103C309.154 359.94 306.946 361.687 304.781 362.7C302.597 363.723 299.934 364.269 297.129 364.491C291.482 364.939 284.338 364.145 276.952 362.14C269.566 360.135 263.002 357.206 258.357 353.964C256.049 352.354 254.028 350.537 252.661 348.549C251.306 346.581 250.285 343.957 251.055 341.12C251.825 338.283 254.033 336.536 256.197 335.523C258.382 334.5 261.045 333.954 263.85 333.732C269.496 333.284 276.64 334.078 284.027 336.083Z" stroke="black" stroke-width="8"/>
<path d="M284.027 336.083C291.413 338.088 297.977 341.017 302.622 344.259C304.929 345.869 306.951 347.686 308.318 349.674C309.673 351.642 310.694 354.266 309.924 357.103C309.154 359.94 306.946 361.687 304.781 362.7C302.597 363.723 299.934 364.269 297.129 364.491C291.482 364.939 284.338 364.145 276.952 362.14C269.566 360.135 263.002 357.206 258.357 353.964C256.049 352.354 254.028 350.537 252.661 348.549C251.306 346.581 250.285 343.957 251.055 341.12C251.825 338.283 254.033 336.536 256.197 335.523C258.382 334.5 261.045 333.954 263.85 333.732C269.496 333.284 276.64 334.078 284.027 336.083Z" stroke="black" stroke-width="8"/>
<path d="M195.426 116V0H220.926V116H249.926V0H275.426V127L308.426 170.5L260.926 276L244.426 291.5C244.426 291.5 215.672 324.974 229.926 337C234.61 340.952 244.426 343 244.426 343L262.426 337C262.426 337 279.426 285 293.426 294C295.488 311 302.932 332.802 296.926 345C292.664 353.655 279.926 373 273.426 377C266.926 381 259.926 390.357 235.926 387.5C211.926 384.643 206.547 374.063 202.426 369.5C188.426 354 192.595 338.511 195.426 320C198.428 300.368 220.926 276 220.926 276L166.426 170.5L195.426 116Z" fill="#D9D9D9"/>
<path d="M195.426 116V0H220.926V116H249.926V0H275.426V127L308.426 170.5L260.926 276L244.426 291.5C244.426 291.5 215.672 324.974 229.926 337C234.61 340.952 244.426 343 244.426 343L262.426 337C262.426 337 279.426 285 293.426 294C295.488 311 302.932 332.802 296.926 345C292.664 353.655 279.926 373 273.426 377C266.926 381 259.926 390.357 235.926 387.5C211.926 384.643 206.547 374.063 202.426 369.5C188.426 354 192.595 338.511 195.426 320C198.428 300.368 220.926 276 220.926 276L166.426 170.5L195.426 116Z" fill="url(#paint1_linear_169_23)"/>
<mask id="path-5-outside-1_169_23" maskUnits="userSpaceOnUse" x="180.266" y="317.122" width="77.3199" height="60.7558" fill="black">
<rect fill="white" x="180.266" y="317.122" width="77.3199" height="60.7558"/>
<path d="M242.972 336.364C245.177 341.125 236.198 349.97 222.918 356.12C209.637 362.271 197.084 363.397 194.879 358.636C192.674 353.875 201.653 345.03 214.933 338.879C228.214 332.729 240.767 331.603 242.972 336.364Z"/>
</mask>
<g clip-path="url(#paint2_angular_169_23_clip_path)" data-figma-skip-parse="true" mask="url(#path-5-outside-1_169_23)"><g transform="matrix(0.00399223 0.00862045 -0.0240465 0.0111362 218.925 347.5)"><foreignObject x="-1842.11" y="-1842.11" width="3684.21" height="3684.21"><div xmlns="http://www.w3.org/1999/xhtml" style="background:conic-gradient(from 90deg,rgba(0, 0, 0, 1) 0deg,rgba(28, 26, 26, 1) 294.231deg,rgba(0, 0, 0, 1) 360deg);height:100%;width:100%;opacity:1"></div></foreignObject></g></g><path d="M242.972 336.364L235.713 339.725C234.896 337.962 235.586 336.782 235.378 337.23C235.189 337.637 234.572 338.609 233.137 340.022C230.32 342.797 225.587 346.068 219.556 348.861L222.918 356.12L226.28 363.38C233.529 360.022 239.925 355.795 244.366 351.42C246.561 349.258 248.605 346.741 249.895 343.958C251.165 341.217 252.151 337.146 250.231 333.002L242.972 336.364ZM222.918 356.12L219.556 348.861C213.525 351.654 207.969 353.149 204.03 353.502C202.024 353.682 200.884 353.524 200.452 353.405C199.975 353.273 201.321 353.51 202.138 355.274L194.879 358.636L187.62 361.998C189.539 366.142 193.281 368.024 196.194 368.828C199.15 369.644 202.392 369.713 205.46 369.438C211.669 368.881 219.03 366.737 226.28 363.38L222.918 356.12ZM194.879 358.636L202.138 355.274C202.955 357.038 202.265 358.218 202.473 357.77C202.662 357.363 203.279 356.391 204.713 354.978C207.531 352.202 212.264 348.932 218.295 346.139L214.933 338.879L211.571 331.62C204.322 334.977 197.926 339.205 193.485 343.58C191.29 345.742 189.246 348.259 187.956 351.041C186.686 353.783 185.7 357.854 187.62 361.998L194.879 358.636ZM214.933 338.879L218.295 346.139C224.326 343.346 229.882 341.851 233.821 341.498C235.827 341.318 236.967 341.475 237.399 341.595C237.876 341.726 236.53 341.489 235.713 339.725L242.972 336.364L250.231 333.002C248.312 328.857 244.57 326.976 241.657 326.172C238.701 325.356 235.459 325.286 232.391 325.562C226.182 326.119 218.821 328.263 211.571 331.62L214.933 338.879Z" data-figma-gradient-fill="{&#34;type&#34;:&#34;GRADIENT_ANGULAR&#34;,&#34;stops&#34;:[{&#34;color&#34;:{&#34;r&#34;:0.11057692021131516,&#34;g&#34;:0.10419748723506927,&#34;b&#34;:0.10419748723506927,&#34;a&#34;:1.0},&#34;position&#34;:0.81730771064758301},{&#34;color&#34;:{&#34;r&#34;:0.0,&#34;g&#34;:0.0,&#34;b&#34;:0.0,&#34;a&#34;:1.0},&#34;position&#34;:1.0}],&#34;stopsVar&#34;:[{&#34;color&#34;:{&#34;r&#34;:0.11057692021131516,&#34;g&#34;:0.10419748723506927,&#34;b&#34;:0.10419748723506927,&#34;a&#34;:1.0},&#34;position&#34;:0.81730771064758301},{&#34;color&#34;:{&#34;r&#34;:0.0,&#34;g&#34;:0.0,&#34;b&#34;:0.0,&#34;a&#34;:1.0},&#34;position&#34;:1.0}],&#34;transform&#34;:{&#34;m00&#34;:7.9844655990600586,&#34;m01&#34;:-48.093009948730469,&#34;m02&#34;:238.97972106933594,&#34;m10&#34;:17.240890502929688,&#34;m11&#34;:22.272457122802734,&#34;m12&#34;:327.74316406250},&#34;opacity&#34;:1.0,&#34;blendMode&#34;:&#34;NORMAL&#34;,&#34;visible&#34;:true}" mask="url(#path-5-outside-1_169_23)"/>
<mask id="path-7-outside-2_169_23" maskUnits="userSpaceOnUse" x="117.805" y="343.356" width="96.6619" height="73.2773" fill="black">
<rect fill="white" x="117.805" y="343.356" width="96.6619" height="73.2773"/>
<path d="M198.582 364.509C201.27 370.313 188.834 381.788 170.805 390.137C152.776 398.487 135.981 400.549 133.293 394.745C130.605 388.94 143.041 377.466 161.07 369.116C179.099 360.767 195.894 358.704 198.582 364.509Z"/>
</mask>
<g clip-path="url(#paint3_angular_169_23_clip_path)" data-figma-skip-parse="true" mask="url(#path-7-outside-2_169_23)"><g transform="matrix(0.00486748 0.0105104 -0.0326445 0.015118 165.938 379.627)"><foreignObject x="-1690.68" y="-1690.68" width="3381.36" height="3381.36"><div xmlns="http://www.w3.org/1999/xhtml" style="background:conic-gradient(from 90deg,rgba(0, 0, 0, 1) 0deg,rgba(28, 26, 26, 1) 294.231deg,rgba(0, 0, 0, 1) 360deg);height:100%;width:100%;opacity:1"></div></foreignObject></g></g><path d="M198.582 364.509L191.323 367.871C190.472 366.034 191.394 365 190.839 366.048C190.358 366.958 189.204 368.49 187.038 370.489C182.774 374.423 175.915 378.954 167.443 382.878L170.805 390.137L174.167 397.396C183.724 392.97 192.098 387.59 197.888 382.248C200.748 379.609 203.326 376.662 204.983 373.528C206.568 370.531 208.036 365.886 205.841 361.147L198.582 364.509ZM170.805 390.137L167.443 382.878C158.971 386.801 151.079 389.101 145.321 389.808C142.395 390.168 140.481 390.057 139.475 389.835C138.318 389.58 139.702 389.546 140.553 391.383L133.293 394.745L126.034 398.107C128.229 402.846 132.721 404.731 136.031 405.46C139.494 406.223 143.409 406.163 147.272 405.689C155.091 404.729 164.61 401.822 174.167 397.396L170.805 390.137ZM133.293 394.745L140.553 391.383C141.403 393.22 140.482 394.253 141.036 393.206C141.517 392.295 142.671 390.763 144.838 388.764C149.101 384.831 155.96 380.299 164.432 376.376L161.07 369.116L157.708 361.857C148.151 366.283 139.778 371.663 133.988 377.005C131.128 379.644 128.55 382.591 126.892 385.726C125.307 388.723 123.839 393.368 126.034 398.107L133.293 394.745ZM161.07 369.116L164.432 376.376C172.904 372.452 180.796 370.152 186.554 369.445C189.48 369.086 191.395 369.196 192.4 369.418C193.558 369.673 192.173 369.707 191.323 367.871L198.582 364.509L205.841 361.147C203.647 356.408 199.155 354.523 195.844 353.793C192.381 353.03 188.466 353.09 184.604 353.564C176.785 354.525 167.265 357.431 157.708 361.857L161.07 369.116Z" data-figma-gradient-fill="{&#34;type&#34;:&#34;GRADIENT_ANGULAR&#34;,&#34;stops&#34;:[{&#34;color&#34;:{&#34;r&#34;:0.11057692021131516,&#34;g&#34;:0.10419748723506927,&#34;b&#34;:0.10419748723506927,&#34;a&#34;:1.0},&#34;position&#34;:0.81730771064758301},{&#34;color&#34;:{&#34;r&#34;:0.0,&#34;g&#34;:0.0,&#34;b&#34;:0.0,&#34;a&#34;:1.0},&#34;position&#34;:1.0}],&#34;stopsVar&#34;:[{&#34;color&#34;:{&#34;r&#34;:0.11057692021131516,&#34;g&#34;:0.10419748723506927,&#34;b&#34;:0.10419748723506927,&#34;a&#34;:1.0},&#34;position&#34;:0.81730771064758301},{&#34;color&#34;:{&#34;r&#34;:0.0,&#34;g&#34;:0.0,&#34;b&#34;:0.0,&#34;a&#34;:1.0},&#34;position&#34;:1.0}],&#34;transform&#34;:{&#34;m00&#34;:9.7349624633789062,&#34;m01&#34;:-65.288909912109375,&#34;m02&#34;:193.71469116210938,&#34;m10&#34;:21.020744323730469,&#34;m11&#34;:30.236085891723633,&#34;m12&#34;:353.9982910156250},&#34;opacity&#34;:1.0,&#34;blendMode&#34;:&#34;NORMAL&#34;,&#34;visible&#34;:true}" mask="url(#path-7-outside-2_169_23)"/>
<mask id="path-9-outside-3_169_23" maskUnits="userSpaceOnUse" x="291.669" y="343.511" width="93.7256" height="55.0618" fill="black">
<rect fill="white" x="291.669" y="343.511" width="93.7256" height="55.0618"/>
<path d="M373.229 380.461C374.427 375.853 359.811 368.063 340.583 363.06C321.355 358.057 304.795 357.737 303.596 362.345C302.398 366.952 317.014 374.743 336.242 379.746C355.47 384.748 372.03 385.068 373.229 380.461Z"/>
</mask>
<g clip-path="url(#paint4_angular_169_23_clip_path)" data-figma-skip-parse="true" mask="url(#path-9-outside-3_169_23)"><g transform="matrix(0.00217051 -0.00834274 -0.0348162 -0.00905804 338.412 371.403)"><foreignObject x="-1928.02" y="-1928.02" width="3856.05" height="3856.05"><div xmlns="http://www.w3.org/1999/xhtml" style="background:conic-gradient(from 90deg,rgba(0, 0, 0, 1) 0deg,rgba(28, 26, 26, 1) 294.231deg,rgba(0, 0, 0, 1) 360deg);height:100%;width:100%;opacity:1"></div></foreignObject></g></g><path d="M373.229 380.461L365.486 378.447C364.592 381.884 367.025 383.463 365.769 382.245C365.038 381.537 363.464 380.387 360.803 378.968C355.596 376.193 347.76 373.194 338.569 370.802L340.583 363.06L342.597 355.318C352.635 357.929 361.721 361.327 368.329 364.849C371.576 366.579 374.633 368.554 376.906 370.758C378.655 372.453 382.465 376.734 380.971 382.475L373.229 380.461ZM340.583 363.06L338.569 370.802C329.378 368.411 321.074 367.211 315.174 367.097C312.159 367.039 310.224 367.276 309.241 367.538C307.551 367.99 310.444 367.796 311.339 364.359L303.596 362.345L295.854 360.33C297.348 354.589 302.761 352.708 305.113 352.08C308.173 351.263 311.805 351.029 315.483 351.1C322.97 351.245 332.56 352.706 342.597 355.318L340.583 363.06ZM303.596 362.345L311.339 364.359C312.233 360.922 309.8 359.343 311.056 360.561C311.787 361.269 313.361 362.419 316.022 363.837C321.229 366.613 329.065 369.612 338.256 372.003L336.242 379.746L334.228 387.488C324.19 384.876 315.104 381.479 308.496 377.957C305.249 376.226 302.192 374.252 299.919 372.047C298.17 370.352 294.36 366.072 295.854 360.33L303.596 362.345ZM336.242 379.746L338.256 372.003C347.447 374.394 355.751 375.594 361.651 375.709C364.666 375.767 366.601 375.53 367.584 375.267C369.274 374.816 366.381 375.009 365.486 378.447L373.229 380.461L380.971 382.475C379.477 388.216 374.064 390.097 371.712 390.726C368.652 391.543 365.02 391.777 361.342 391.706C353.855 391.561 344.265 390.099 334.228 387.488L336.242 379.746Z" data-figma-gradient-fill="{&#34;type&#34;:&#34;GRADIENT_ANGULAR&#34;,&#34;stops&#34;:[{&#34;color&#34;:{&#34;r&#34;:0.11057692021131516,&#34;g&#34;:0.10419748723506927,&#34;b&#34;:0.10419748723506927,&#34;a&#34;:1.0},&#34;position&#34;:0.81730771064758301},{&#34;color&#34;:{&#34;r&#34;:0.0,&#34;g&#34;:0.0,&#34;b&#34;:0.0,&#34;a&#34;:1.0},&#34;position&#34;:1.0}],&#34;stopsVar&#34;:[{&#34;color&#34;:{&#34;r&#34;:0.11057692021131516,&#34;g&#34;:0.10419748723506927,&#34;b&#34;:0.10419748723506927,&#34;a&#34;:1.0},&#34;position&#34;:0.81730771064758301},{&#34;color&#34;:{&#34;r&#34;:0.0,&#34;g&#34;:0.0,&#34;b&#34;:0.0,&#34;a&#34;:1.0},&#34;position&#34;:1.0}],&#34;transform&#34;:{&#34;m00&#34;:4.3410162925720215,&#34;m01&#34;:-69.632392883300781,&#34;m02&#34;:371.05816650390625,&#34;m10&#34;:-16.685472488403320,&#34;m11&#34;:-18.116079330444336,&#34;m12&#34;:388.80358886718750},&#34;opacity&#34;:1.0,&#34;blendMode&#34;:&#34;NORMAL&#34;,&#34;visible&#34;:true}" mask="url(#path-9-outside-3_169_23)"/>
<mask id="path-11-outside-4_169_23" maskUnits="userSpaceOnUse" x="351.669" y="368.511" width="93.7256" height="55.0618" fill="black">
<rect fill="white" x="351.669" y="368.511" width="93.7256" height="55.0618"/>
<path d="M433.229 405.461C434.427 400.853 419.811 393.063 400.583 388.06C381.355 383.057 364.795 382.737 363.596 387.345C362.398 391.952 377.014 399.743 396.242 404.746C415.47 409.748 432.03 410.068 433.229 405.461Z"/>
</mask>
<g clip-path="url(#paint5_angular_169_23_clip_path)" data-figma-skip-parse="true" mask="url(#path-11-outside-4_169_23)"><g transform="matrix(0.00217051 -0.00834274 -0.0348162 -0.00905804 398.412 396.403)"><foreignObject x="-1928.02" y="-1928.02" width="3856.05" height="3856.05"><div xmlns="http://www.w3.org/1999/xhtml" style="background:conic-gradient(from 90deg,rgba(0, 0, 0, 1) 0deg,rgba(28, 26, 26, 1) 294.231deg,rgba(0, 0, 0, 1) 360deg);height:100%;width:100%;opacity:1"></div></foreignObject></g></g><path d="M433.229 405.461L425.486 403.447C424.592 406.884 427.025 408.463 425.769 407.245C425.038 406.537 423.464 405.387 420.803 403.968C415.596 401.193 407.76 398.194 398.569 395.802L400.583 388.06L402.597 380.318C412.635 382.929 421.721 386.327 428.329 389.849C431.576 391.579 434.633 393.554 436.906 395.758C438.655 397.453 442.465 401.734 440.971 407.475L433.229 405.461ZM400.583 388.06L398.569 395.802C389.378 393.411 381.074 392.211 375.174 392.097C372.159 392.039 370.224 392.276 369.241 392.538C367.551 392.99 370.444 392.796 371.339 389.359L363.596 387.345L355.854 385.33C357.348 379.589 362.761 377.708 365.113 377.08C368.173 376.263 371.805 376.029 375.483 376.1C382.97 376.245 392.56 377.706 402.597 380.318L400.583 388.06ZM363.596 387.345L371.339 389.359C372.233 385.922 369.8 384.343 371.056 385.561C371.787 386.269 373.361 387.419 376.022 388.837C381.229 391.613 389.065 394.612 398.256 397.003L396.242 404.746L394.228 412.488C384.19 409.876 375.104 406.479 368.496 402.957C365.249 401.226 362.192 399.252 359.919 397.047C358.17 395.352 354.36 391.072 355.854 385.33L363.596 387.345ZM396.242 404.746L398.256 397.003C407.447 399.394 415.751 400.594 421.651 400.709C424.666 400.767 426.601 400.53 427.584 400.267C429.274 399.816 426.381 400.009 425.486 403.447L433.229 405.461L440.971 407.475C439.477 413.216 434.064 415.097 431.712 415.726C428.652 416.543 425.02 416.777 421.342 416.706C413.855 416.561 404.265 415.099 394.228 412.488L396.242 404.746Z" data-figma-gradient-fill="{&#34;type&#34;:&#34;GRADIENT_ANGULAR&#34;,&#34;stops&#34;:[{&#34;color&#34;:{&#34;r&#34;:0.11057692021131516,&#34;g&#34;:0.10419748723506927,&#34;b&#34;:0.10419748723506927,&#34;a&#34;:1.0},&#34;position&#34;:0.81730771064758301},{&#34;color&#34;:{&#34;r&#34;:0.0,&#34;g&#34;:0.0,&#34;b&#34;:0.0,&#34;a&#34;:1.0},&#34;position&#34;:1.0}],&#34;stopsVar&#34;:[{&#34;color&#34;:{&#34;r&#34;:0.11057692021131516,&#34;g&#34;:0.10419748723506927,&#34;b&#34;:0.10419748723506927,&#34;a&#34;:1.0},&#34;position&#34;:0.81730771064758301},{&#34;color&#34;:{&#34;r&#34;:0.0,&#34;g&#34;:0.0,&#34;b&#34;:0.0,&#34;a&#34;:1.0},&#34;position&#34;:1.0}],&#34;transform&#34;:{&#34;m00&#34;:4.3410162925720215,&#34;m01&#34;:-69.632392883300781,&#34;m02&#34;:431.05816650390625,&#34;m10&#34;:-16.685472488403320,&#34;m11&#34;:-18.116079330444336,&#34;m12&#34;:413.80358886718750},&#34;opacity&#34;:1.0,&#34;blendMode&#34;:&#34;NORMAL&#34;,&#34;visible&#34;:true}" mask="url(#path-11-outside-4_169_23)"/>
<mask id="path-13-outside-5_169_23" maskUnits="userSpaceOnUse" x="411.669" y="393.511" width="93.7256" height="55.0618" fill="black">
<rect fill="white" x="411.669" y="393.511" width="93.7256" height="55.0618"/>
<path d="M493.229 430.461C494.427 425.853 479.811 418.063 460.583 413.06C441.355 408.057 424.795 407.737 423.596 412.345C422.398 416.952 437.014 424.743 456.242 429.746C475.47 434.748 492.03 435.068 493.229 430.461Z"/>
</mask>
<g clip-path="url(#paint6_angular_169_23_clip_path)" data-figma-skip-parse="true" mask="url(#path-13-outside-5_169_23)"><g transform="matrix(0.00217051 -0.00834274 -0.0348162 -0.00905804 458.412 421.403)"><foreignObject x="-1928.02" y="-1928.02" width="3856.05" height="3856.05"><div xmlns="http://www.w3.org/1999/xhtml" style="background:conic-gradient(from 90deg,rgba(0, 0, 0, 1) 0deg,rgba(28, 26, 26, 1) 294.231deg,rgba(0, 0, 0, 1) 360deg);height:100%;width:100%;opacity:1"></div></foreignObject></g></g><path d="M493.229 430.461L485.486 428.447C484.592 431.884 487.025 433.463 485.769 432.245C485.038 431.537 483.464 430.387 480.803 428.968C475.596 426.193 467.76 423.194 458.569 420.802L460.583 413.06L462.597 405.318C472.635 407.929 481.721 411.327 488.329 414.849C491.576 416.579 494.633 418.554 496.906 420.758C498.655 422.453 502.465 426.734 500.971 432.475L493.229 430.461ZM460.583 413.06L458.569 420.802C449.378 418.411 441.074 417.211 435.174 417.097C432.159 417.039 430.224 417.276 429.241 417.538C427.551 417.99 430.444 417.796 431.339 414.359L423.596 412.345L415.854 410.33C417.348 404.589 422.761 402.708 425.113 402.08C428.173 401.263 431.805 401.029 435.483 401.1C442.97 401.245 452.56 402.706 462.597 405.318L460.583 413.06ZM423.596 412.345L431.339 414.359C432.233 410.922 429.8 409.343 431.056 410.561C431.787 411.269 433.361 412.419 436.022 413.837C441.229 416.613 449.065 419.612 458.256 422.003L456.242 429.746L454.228 437.488C444.19 434.876 435.104 431.479 428.496 427.957C425.249 426.226 422.192 424.252 419.919 422.047C418.17 420.352 414.36 416.072 415.854 410.33L423.596 412.345ZM456.242 429.746L458.256 422.003C467.447 424.394 475.751 425.594 481.651 425.709C484.666 425.767 486.601 425.53 487.584 425.267C489.274 424.816 486.381 425.009 485.486 428.447L493.229 430.461L500.971 432.475C499.477 438.216 494.064 440.097 491.712 440.726C488.652 441.543 485.02 441.777 481.342 441.706C473.855 441.561 464.265 440.099 454.228 437.488L456.242 429.746Z" data-figma-gradient-fill="{&#34;type&#34;:&#34;GRADIENT_ANGULAR&#34;,&#34;stops&#34;:[{&#34;color&#34;:{&#34;r&#34;:0.11057692021131516,&#34;g&#34;:0.10419748723506927,&#34;b&#34;:0.10419748723506927,&#34;a&#34;:1.0},&#34;position&#34;:0.81730771064758301},{&#34;color&#34;:{&#34;r&#34;:0.0,&#34;g&#34;:0.0,&#34;b&#34;:0.0,&#34;a&#34;:1.0},&#34;position&#34;:1.0}],&#34;stopsVar&#34;:[{&#34;color&#34;:{&#34;r&#34;:0.11057692021131516,&#34;g&#34;:0.10419748723506927,&#34;b&#34;:0.10419748723506927,&#34;a&#34;:1.0},&#34;position&#34;:0.81730771064758301},{&#34;color&#34;:{&#34;r&#34;:0.0,&#34;g&#34;:0.0,&#34;b&#34;:0.0,&#34;a&#34;:1.0},&#34;position&#34;:1.0}],&#34;transform&#34;:{&#34;m00&#34;:4.3410162925720215,&#34;m01&#34;:-69.632392883300781,&#34;m02&#34;:491.05816650390625,&#34;m10&#34;:-16.685472488403320,&#34;m11&#34;:-18.116079330444336,&#34;m12&#34;:438.80358886718750},&#34;opacity&#34;:1.0,&#34;blendMode&#34;:&#34;NORMAL&#34;,&#34;visible&#34;:true}" mask="url(#path-13-outside-5_169_23)"/>
<mask id="path-15-outside-6_169_23" maskUnits="userSpaceOnUse" x="454.669" y="413.511" width="115.017" height="60.601" fill="black">
<rect fill="white" x="454.669" y="413.511" width="115.017" height="60.601"/>
<path d="M557.317 455.947C558.516 451.34 539.179 442.321 514.127 435.803C489.075 429.286 467.795 427.737 466.596 432.345C465.398 436.952 484.734 445.971 509.786 452.489C534.838 459.007 556.119 460.555 557.317 455.947Z"/>
</mask>
<g clip-path="url(#paint7_angular_169_23_clip_path)" data-figma-skip-parse="true" mask="url(#path-15-outside-6_169_23)"><g transform="matrix(0.00217051 -0.00834274 -0.0453605 -0.0118013 511.957 444.146)"><foreignObject x="-1928.02" y="-1928.02" width="3856.05" height="3856.05"><div xmlns="http://www.w3.org/1999/xhtml" style="background:conic-gradient(from 90deg,rgba(0, 0, 0, 1) 0deg,rgba(28, 26, 26, 1) 294.231deg,rgba(0, 0, 0, 1) 360deg);height:100%;width:100%;opacity:1"></div></foreignObject></g></g><path d="M557.317 455.947L549.575 453.933C548.927 456.423 549.971 458.153 550.16 458.438C550.367 458.752 550.355 458.612 549.663 458.069C548.329 457.024 545.873 455.562 542.185 453.842C534.929 450.458 524.317 446.721 512.113 443.546L514.127 435.803L516.142 428.061C528.989 431.404 540.572 435.435 548.948 439.341C553.075 441.266 556.795 443.331 559.532 445.476C560.875 446.528 562.373 447.9 563.507 449.615C564.621 451.3 566.007 454.319 565.06 457.962L557.317 455.947ZM514.127 435.803L512.113 443.546C499.909 440.37 488.822 438.462 480.836 437.881C476.777 437.586 473.921 437.665 472.246 437.928C471.377 438.064 471.298 438.181 471.633 438.008C471.936 437.851 473.691 436.849 474.339 434.359L466.596 432.345L458.854 430.33C459.802 426.688 462.483 424.727 464.278 423.798C466.103 422.854 468.08 422.386 469.766 422.122C473.201 421.582 477.455 421.593 481.997 421.923C491.215 422.594 503.294 424.719 516.142 428.061L514.127 435.803ZM466.596 432.345L474.339 434.359C474.986 431.869 473.942 430.139 473.754 429.854C473.546 429.54 473.558 429.68 474.251 430.223C475.585 431.268 478.04 432.73 481.729 434.45C488.985 437.835 499.596 441.571 511.801 444.747L509.786 452.489L507.772 460.231C494.924 456.889 483.341 452.857 474.966 448.951C470.838 447.026 467.119 444.961 464.382 442.816C463.038 441.764 461.54 440.392 460.407 438.678C459.293 436.992 457.906 433.973 458.854 430.33L466.596 432.345ZM509.786 452.489L511.801 444.747C524.005 447.922 535.092 449.83 543.077 450.411C547.137 450.707 549.993 450.627 551.668 450.364C552.537 450.228 552.615 450.111 552.281 450.284C551.977 450.441 550.223 451.443 549.575 453.933L557.317 455.947L565.06 457.962C564.112 461.604 561.43 463.565 559.636 464.494C557.81 465.439 555.834 465.906 554.148 466.171C550.712 466.71 546.458 466.699 541.916 466.369C532.699 465.698 520.62 463.574 507.772 460.231L509.786 452.489Z" data-figma-gradient-fill="{&#34;type&#34;:&#34;GRADIENT_ANGULAR&#34;,&#34;stops&#34;:[{&#34;color&#34;:{&#34;r&#34;:0.11057692021131516,&#34;g&#34;:0.10419748723506927,&#34;b&#34;:0.10419748723506927,&#34;a&#34;:1.0},&#34;position&#34;:0.81730771064758301},{&#34;color&#34;:{&#34;r&#34;:0.0,&#34;g&#34;:0.0,&#34;b&#34;:0.0,&#34;a&#34;:1.0},&#34;position&#34;:1.0}],&#34;stopsVar&#34;:[{&#34;color&#34;:{&#34;r&#34;:0.11057692021131516,&#34;g&#34;:0.10419748723506927,&#34;b&#34;:0.10419748723506927,&#34;a&#34;:1.0},&#34;position&#34;:0.81730771064758301},{&#34;color&#34;:{&#34;r&#34;:0.0,&#34;g&#34;:0.0,&#34;b&#34;:0.0,&#34;a&#34;:1.0},&#34;position&#34;:1.0}],&#34;transform&#34;:{&#34;m00&#34;:4.3410162925720215,&#34;m01&#34;:-90.720962524414062,&#34;m02&#34;:555.1467285156250,&#34;m10&#34;:-16.685472488403320,&#34;m11&#34;:-23.602638244628906,&#34;m12&#34;:464.29013061523438},&#34;opacity&#34;:1.0,&#34;blendMode&#34;:&#34;NORMAL&#34;,&#34;visible&#34;:true}" mask="url(#path-15-outside-6_169_23)"/>
<mask id="path-17-outside-7_169_23" maskUnits="userSpaceOnUse" x="55.3436" y="377.575" width="96.6619" height="73.2773" fill="black">
<rect fill="white" x="55.3436" y="377.575" width="96.6619" height="73.2773"/>
<path d="M136.121 398.727C138.809 404.532 126.373 416.006 108.344 424.356C90.3152 432.705 73.5206 434.768 70.8323 428.963C68.1441 423.159 80.5803 411.685 98.6093 403.335C116.638 394.986 133.433 392.923 136.121 398.727Z"/>
</mask>
<g clip-path="url(#paint8_angular_169_23_clip_path)" data-figma-skip-parse="true" mask="url(#path-17-outside-7_169_23)"><g transform="matrix(0.00486748 0.0105104 -0.0326445 0.015118 103.477 413.845)"><foreignObject x="-1690.68" y="-1690.68" width="3381.36" height="3381.36"><div xmlns="http://www.w3.org/1999/xhtml" style="background:conic-gradient(from 90deg,rgba(0, 0, 0, 1) 0deg,rgba(28, 26, 26, 1) 294.231deg,rgba(0, 0, 0, 1) 360deg);height:100%;width:100%;opacity:1"></div></foreignObject></g></g><path d="M136.121 398.727L128.862 402.089C128.011 400.253 128.933 399.219 128.379 400.267C127.897 401.177 126.743 402.709 124.577 404.708C120.313 408.641 113.454 413.173 104.982 417.097L108.344 424.356L111.706 431.615C121.263 427.189 129.637 421.809 135.427 416.467C138.287 413.828 140.865 410.881 142.522 407.747C144.107 404.75 145.575 400.105 143.381 395.366L136.121 398.727ZM108.344 424.356L104.982 417.097C96.5103 421.02 88.618 423.32 82.8602 424.027C79.9343 424.387 78.02 424.276 77.0142 424.054C75.8566 423.799 77.241 423.765 78.0916 425.602L70.8323 428.963L63.573 432.325C65.7677 437.064 70.2596 438.949 73.5704 439.679C77.0332 440.442 80.9484 440.382 84.8108 439.908C92.6296 438.947 102.149 436.041 111.706 431.615L108.344 424.356ZM70.8323 428.963L78.0916 425.602C78.9423 427.438 78.0208 428.472 78.575 427.424C79.0565 426.514 80.2101 424.982 82.3767 422.983C86.6403 419.049 93.4991 414.518 101.971 410.594L98.6093 403.335L95.2474 396.076C85.6904 400.502 77.3166 405.882 71.527 411.224C68.6669 413.863 66.0887 416.81 64.4311 419.944C62.8461 422.941 61.3783 427.586 63.573 432.325L70.8323 428.963ZM98.6093 403.335L101.971 410.594C110.443 406.671 118.336 404.371 124.093 403.664C127.019 403.304 128.934 403.415 129.939 403.637C131.097 403.892 129.713 403.926 128.862 402.089L136.121 398.727L143.381 395.366C141.186 390.626 136.694 388.742 133.383 388.012C129.92 387.249 126.005 387.309 122.143 387.783C114.324 388.744 104.804 391.65 95.2474 396.076L98.6093 403.335Z" data-figma-gradient-fill="{&#34;type&#34;:&#34;GRADIENT_ANGULAR&#34;,&#34;stops&#34;:[{&#34;color&#34;:{&#34;r&#34;:0.11057692021131516,&#34;g&#34;:0.10419748723506927,&#34;b&#34;:0.10419748723506927,&#34;a&#34;:1.0},&#34;position&#34;:0.81730771064758301},{&#34;color&#34;:{&#34;r&#34;:0.0,&#34;g&#34;:0.0,&#34;b&#34;:0.0,&#34;a&#34;:1.0},&#34;position&#34;:1.0}],&#34;stopsVar&#34;:[{&#34;color&#34;:{&#34;r&#34;:0.11057692021131516,&#34;g&#34;:0.10419748723506927,&#34;b&#34;:0.10419748723506927,&#34;a&#34;:1.0},&#34;position&#34;:0.81730771064758301},{&#34;color&#34;:{&#34;r&#34;:0.0,&#34;g&#34;:0.0,&#34;b&#34;:0.0,&#34;a&#34;:1.0},&#34;position&#34;:1.0}],&#34;transform&#34;:{&#34;m00&#34;:9.7349624633789062,&#34;m01&#34;:-65.288909912109375,&#34;m02&#34;:131.25375366210938,&#34;m10&#34;:21.020744323730469,&#34;m11&#34;:30.236085891723633,&#34;m12&#34;:388.2170410156250},&#34;opacity&#34;:1.0,&#34;blendMode&#34;:&#34;NORMAL&#34;,&#34;visible&#34;:true}" mask="url(#path-17-outside-7_169_23)"/>
<mask id="path-19-outside-8_169_23" maskUnits="userSpaceOnUse" x="-7.1173" y="411.794" width="96.6619" height="73.2773" fill="black">
<rect fill="white" x="-7.1173" y="411.794" width="96.6619" height="73.2773"/>
<path d="M73.6603 432.946C76.3485 438.751 63.9124 450.225 45.8833 458.575C27.8543 466.924 11.0596 468.987 8.37139 463.182C5.68315 457.378 18.1193 445.903 36.1484 437.554C54.1774 429.204 70.9721 427.141 73.6603 432.946Z"/>
</mask>
<g clip-path="url(#paint9_angular_169_23_clip_path)" data-figma-skip-parse="true" mask="url(#path-19-outside-8_169_23)"><g transform="matrix(0.00486748 0.0105104 -0.0326445 0.015118 41.0158 448.064)"><foreignObject x="-1690.68" y="-1690.68" width="3381.36" height="3381.36"><div xmlns="http://www.w3.org/1999/xhtml" style="background:conic-gradient(from 90deg,rgba(0, 0, 0, 1) 0deg,rgba(28, 26, 26, 1) 294.231deg,rgba(0, 0, 0, 1) 360deg);height:100%;width:100%;opacity:1"></div></foreignObject></g></g><path d="M73.6603 432.946L66.401 436.308C65.5503 434.471 66.4718 433.437 65.9176 434.485C65.4361 435.396 64.2825 436.927 62.1159 438.926C57.8523 442.86 50.9935 447.392 42.5214 451.315L45.8833 458.575L49.2452 465.834C58.8022 461.408 67.176 456.028 72.9657 450.686C75.8257 448.047 78.4039 445.1 80.0615 441.965C81.6465 438.968 83.1144 434.323 80.9196 429.584L73.6603 432.946ZM45.8833 458.575L42.5214 451.315C34.0494 455.239 26.1571 457.539 20.3992 458.246C17.4733 458.605 15.559 458.494 14.5533 458.273C13.3957 458.018 14.7801 457.984 15.6307 459.82L8.37139 463.182L1.11207 466.544C3.30681 471.283 7.79865 473.168 11.1095 473.898C14.5722 474.661 18.4875 474.601 22.3499 474.127C30.1687 473.166 39.6882 470.26 49.2452 465.834L45.8833 458.575ZM8.37139 463.182L15.6307 459.82C16.4813 461.657 15.5599 462.691 16.1141 461.643C16.5955 460.733 17.7492 459.201 19.9158 457.202C24.1794 453.268 31.0382 448.737 39.5102 444.813L36.1484 437.554L32.7865 430.295C23.2295 434.72 14.8557 440.101 9.06601 445.443C6.20595 448.081 3.62779 451.029 1.97014 454.163C0.385185 457.16 -1.08268 461.805 1.11207 466.544L8.37139 463.182ZM36.1484 437.554L39.5102 444.813C47.9823 440.89 55.8746 438.59 61.6325 437.883C64.5584 437.523 66.4726 437.634 67.4784 437.856C68.636 438.111 67.2516 438.145 66.401 436.308L73.6603 432.946L80.9196 429.584C78.7249 424.845 74.233 422.96 70.9222 422.231C67.4595 421.467 63.5442 421.527 59.6818 422.002C51.863 422.962 42.3435 425.869 32.7865 430.295L36.1484 437.554Z" data-figma-gradient-fill="{&#34;type&#34;:&#34;GRADIENT_ANGULAR&#34;,&#34;stops&#34;:[{&#34;color&#34;:{&#34;r&#34;:0.11057692021131516,&#34;g&#34;:0.10419748723506927,&#34;b&#34;:0.10419748723506927,&#34;a&#34;:1.0},&#34;position&#34;:0.81730771064758301},{&#34;color&#34;:{&#34;r&#34;:0.0,&#34;g&#34;:0.0,&#34;b&#34;:0.0,&#34;a&#34;:1.0},&#34;position&#34;:1.0}],&#34;stopsVar&#34;:[{&#34;color&#34;:{&#34;r&#34;:0.11057692021131516,&#34;g&#34;:0.10419748723506927,&#34;b&#34;:0.10419748723506927,&#34;a&#34;:1.0},&#34;position&#34;:0.81730771064758301},{&#34;color&#34;:{&#34;r&#34;:0.0,&#34;g&#34;:0.0,&#34;b&#34;:0.0,&#34;a&#34;:1.0},&#34;position&#34;:1.0}],&#34;transform&#34;:{&#34;m00&#34;:9.7349624633789062,&#34;m01&#34;:-65.288909912109375,&#34;m02&#34;:68.792816162109375,&#34;m10&#34;:21.020744323730469,&#34;m11&#34;:30.236085891723633,&#34;m12&#34;:422.4357910156250},&#34;opacity&#34;:1.0,&#34;blendMode&#34;:&#34;NORMAL&#34;,&#34;visible&#34;:true}" mask="url(#path-19-outside-8_169_23)"/>
<path d="M209.984 523.3C209.984 527.06 208.804 529.96 206.444 532C204.084 534 201.084 535 197.444 535H185.324C185.124 535 184.944 534.94 184.784 534.82C184.664 534.66 184.604 534.48 184.604 534.28V493.72C184.604 493.52 184.664 493.36 184.784 493.24C184.944 493.08 185.124 493 185.324 493H195.884C200.044 493 203.304 493.98 205.664 495.94C208.064 497.86 209.264 500.76 209.264 504.64C209.264 508.48 208.004 511.3 205.484 513.1C205.284 513.22 205.264 513.34 205.424 513.46C208.464 515.7 209.984 518.98 209.984 523.3ZM194.864 501.52C194.664 501.52 194.564 501.62 194.564 501.82V509.5C194.564 509.7 194.664 509.8 194.864 509.8H196.004C197.124 509.8 197.984 509.46 198.584 508.78C199.184 508.06 199.484 507.04 199.484 505.72C199.484 504.36 199.184 503.32 198.584 502.6C197.984 501.88 197.124 501.52 196.004 501.52H194.864ZM196.664 526.42C197.704 526.42 198.524 526.02 199.124 525.22C199.724 524.42 200.024 523.28 200.024 521.8C200.024 520.32 199.724 519.14 199.124 518.26C198.524 517.38 197.724 516.94 196.724 516.94H194.864C194.664 516.94 194.564 517.04 194.564 517.24V526.12C194.564 526.32 194.664 526.42 194.864 526.42H196.664ZM225.438 535.48C221.558 535.48 218.458 534.36 216.138 532.12C213.858 529.88 212.718 526.86 212.718 523.06V504.94C212.718 501.18 213.858 498.18 216.138 495.94C218.458 493.66 221.558 492.52 225.438 492.52C229.278 492.52 232.358 493.66 234.678 495.94C237.038 498.18 238.218 501.18 238.218 504.94V523.06C238.218 526.86 237.038 529.88 234.678 532.12C232.358 534.36 229.278 535.48 225.438 535.48ZM225.438 526.96C226.318 526.96 226.998 526.66 227.478 526.06C227.998 525.42 228.258 524.56 228.258 523.48V504.52C228.258 503.44 227.998 502.6 227.478 502C226.998 501.36 226.318 501.04 225.438 501.04C224.558 501.04 223.878 501.36 223.398 502C222.918 502.6 222.678 503.44 222.678 504.52V523.48C222.678 524.56 222.918 525.42 223.398 526.06C223.878 526.66 224.558 526.96 225.438 526.96ZM249.77 535C249.33 535 249.07 534.78 248.99 534.34L240.83 493.78L240.77 493.54C240.77 493.18 240.99 493 241.43 493H250.25C250.73 493 250.99 493.22 251.03 493.66L253.73 513.4C253.77 513.52 253.83 513.58 253.91 513.58C253.99 513.58 254.05 513.52 254.09 513.4L256.79 493.66C256.83 493.22 257.09 493 257.57 493H264.59C265.07 493 265.33 493.22 265.37 493.66L268.37 513.4C268.41 513.52 268.47 513.58 268.55 513.58C268.63 513.58 268.67 513.52 268.67 513.4L271.13 493.66C271.17 493.22 271.41 493 271.85 493H280.49C281.01 493 281.23 493.26 281.15 493.78L273.41 534.34C273.37 534.78 273.11 535 272.63 535H264.95C264.47 535 264.21 534.78 264.17 534.34L261.17 513.82C261.13 513.7 261.05 513.64 260.93 513.64C260.85 513.64 260.81 513.7 260.81 513.82L258.17 534.34C258.13 534.78 257.89 535 257.45 535H249.77ZM283.852 535C283.652 535 283.472 534.94 283.312 534.82C283.192 534.66 283.132 534.48 283.132 534.28V526.96C283.132 526.76 283.212 526.46 283.372 526.06L295.492 501.88C295.532 501.76 295.532 501.68 295.492 501.64C295.452 501.56 295.372 501.52 295.252 501.52H283.852C283.652 501.52 283.472 501.46 283.312 501.34C283.192 501.18 283.132 501 283.132 500.8V493.72C283.132 493.52 283.192 493.36 283.312 493.24C283.472 493.08 283.652 493 283.852 493H305.452C305.652 493 305.812 493.08 305.932 493.24C306.092 493.36 306.172 493.52 306.172 493.72V501.04C306.172 501.24 306.092 501.54 305.932 501.94L293.692 526.12C293.652 526.24 293.652 526.34 293.692 526.42C293.732 526.46 293.812 526.48 293.932 526.48H305.452C305.652 526.48 305.812 526.56 305.932 526.72C306.092 526.84 306.172 527 306.172 527.2V534.28C306.172 534.48 306.092 534.66 305.932 534.82C305.812 534.94 305.652 535 305.452 535H283.852ZM332.449 500.8C332.449 501 332.369 501.18 332.209 501.34C332.089 501.46 331.929 501.52 331.729 501.52H319.669C319.469 501.52 319.369 501.62 319.369 501.82V509.38C319.369 509.58 319.469 509.68 319.669 509.68H326.269C326.469 509.68 326.629 509.76 326.749 509.92C326.909 510.04 326.989 510.2 326.989 510.4V517.54C326.989 517.74 326.909 517.92 326.749 518.08C326.629 518.2 326.469 518.26 326.269 518.26H319.669C319.469 518.26 319.369 518.36 319.369 518.56V526.18C319.369 526.38 319.469 526.48 319.669 526.48H331.729C331.929 526.48 332.089 526.56 332.209 526.72C332.369 526.84 332.449 527 332.449 527.2V534.28C332.449 534.48 332.369 534.66 332.209 534.82C332.089 534.94 331.929 535 331.729 535H310.129C309.929 535 309.749 534.94 309.589 534.82C309.469 534.66 309.409 534.48 309.409 534.28V493.72C309.409 493.52 309.469 493.36 309.589 493.24C309.749 493.08 309.929 493 310.129 493H331.729C331.929 493 332.089 493.08 332.209 493.24C332.369 493.36 332.449 493.52 332.449 493.72V500.8ZM352.273 535C351.833 535 351.553 534.8 351.433 534.4L347.353 518.5C347.313 518.34 347.213 518.26 347.053 518.26H346.153C345.953 518.26 345.853 518.36 345.853 518.56V534.28C345.853 534.48 345.773 534.66 345.613 534.82C345.493 534.94 345.333 535 345.133 535H336.613C336.413 535 336.233 534.94 336.073 534.82C335.953 534.66 335.893 534.48 335.893 534.28V493.72C335.893 493.52 335.953 493.36 336.073 493.24C336.233 493.08 336.413 493 336.613 493H349.513C351.833 493 353.893 493.56 355.693 494.68C357.493 495.76 358.873 497.3 359.833 499.3C360.833 501.26 361.333 503.5 361.333 506.02C361.333 508.26 360.913 510.28 360.073 512.08C359.273 513.84 358.133 515.26 356.653 516.34C356.573 516.38 356.513 516.44 356.473 516.52C356.433 516.56 356.433 516.62 356.473 516.7L361.633 534.16L361.693 534.4C361.693 534.8 361.473 535 361.033 535H352.273ZM346.153 501.52C345.953 501.52 345.853 501.62 345.853 501.82V510.34C345.853 510.54 345.953 510.64 346.153 510.64H347.833C348.913 510.64 349.773 510.24 350.413 509.44C351.053 508.64 351.373 507.54 351.373 506.14C351.373 504.66 351.053 503.52 350.413 502.72C349.773 501.92 348.913 501.52 347.833 501.52H346.153Z" fill="white"/>
<path d="M125.464 559.32C125.597 559.107 125.784 559 126.024 559H129.704C129.837 559 129.944 559.053 130.024 559.16C130.131 559.24 130.184 559.347 130.184 559.48V586.52C130.184 586.653 130.131 586.773 130.024 586.88C129.944 586.96 129.837 587 129.704 587H126.024C125.891 587 125.771 586.96 125.664 586.88C125.584 586.773 125.544 586.653 125.544 586.52V567.44C125.544 567.36 125.504 567.307 125.424 567.28C125.371 567.253 125.331 567.28 125.304 567.36L120.304 575.04C120.171 575.253 119.984 575.36 119.744 575.36H117.904C117.664 575.36 117.477 575.253 117.344 575.04L112.304 567.4C112.277 567.32 112.224 567.293 112.144 567.32C112.091 567.347 112.064 567.4 112.064 567.48V586.52C112.064 586.653 112.011 586.773 111.904 586.88C111.824 586.96 111.717 587 111.584 587H107.904C107.771 587 107.651 586.96 107.544 586.88C107.464 586.773 107.424 586.653 107.424 586.52V559.48C107.424 559.347 107.464 559.24 107.544 559.16C107.651 559.053 107.771 559 107.904 559H111.584C111.824 559 112.011 559.107 112.144 559.32L118.664 569.2C118.717 569.253 118.771 569.28 118.824 569.28C118.877 569.28 118.917 569.253 118.944 569.2L125.464 559.32ZM153.378 587C153.111 587 152.938 586.867 152.858 586.6L151.538 582.32C151.484 582.213 151.418 582.16 151.338 582.16H140.778C140.698 582.16 140.631 582.213 140.578 582.32L139.258 586.6C139.178 586.867 139.004 587 138.738 587H134.738C134.578 587 134.458 586.96 134.378 586.88C134.298 586.773 134.284 586.627 134.338 586.44L143.018 559.4C143.098 559.133 143.271 559 143.538 559H148.538C148.804 559 148.978 559.133 149.058 559.4L157.778 586.44C157.804 586.493 157.818 586.56 157.818 586.64C157.818 586.88 157.671 587 157.378 587H153.378ZM141.818 578.28C141.791 578.44 141.844 578.52 141.978 578.52H150.098C150.258 578.52 150.311 578.44 150.258 578.28L146.138 564.88C146.111 564.773 146.071 564.72 146.018 564.72C145.964 564.72 145.924 564.773 145.898 564.88L141.818 578.28ZM170.612 587.32C168.612 587.32 166.852 586.933 165.332 586.16C163.812 585.36 162.639 584.253 161.812 582.84C160.985 581.427 160.572 579.787 160.572 577.92V568.04C160.572 566.173 160.985 564.533 161.812 563.12C162.639 561.707 163.812 560.613 165.332 559.84C166.852 559.067 168.612 558.68 170.612 558.68C172.585 558.68 174.332 559.053 175.852 559.8C177.372 560.547 178.545 561.6 179.372 562.96C180.199 564.32 180.612 565.893 180.612 567.68C180.612 567.813 180.559 567.933 180.452 568.04C180.372 568.12 180.265 568.16 180.132 568.16L176.452 568.36C176.132 568.36 175.972 568.213 175.972 567.92C175.972 566.347 175.479 565.08 174.492 564.12C173.532 563.16 172.239 562.68 170.612 562.68C168.985 562.68 167.679 563.16 166.692 564.12C165.705 565.08 165.212 566.347 165.212 567.92V578.12C165.212 579.667 165.705 580.92 166.692 581.88C167.679 582.84 168.985 583.32 170.612 583.32C172.239 583.32 173.532 582.853 174.492 581.92C175.479 580.96 175.972 579.693 175.972 578.12C175.972 577.827 176.132 577.68 176.452 577.68L180.132 577.84C180.265 577.84 180.372 577.88 180.452 577.96C180.559 578.04 180.612 578.133 180.612 578.24C180.612 580.053 180.199 581.653 179.372 583.04C178.545 584.4 177.372 585.453 175.852 586.2C174.332 586.947 172.585 587.32 170.612 587.32ZM200.828 559.48C200.828 559.347 200.868 559.24 200.948 559.16C201.055 559.053 201.175 559 201.308 559H204.988C205.121 559 205.228 559.053 205.308 559.16C205.415 559.24 205.468 559.347 205.468 559.48V586.52C205.468 586.653 205.415 586.773 205.308 586.88C205.228 586.96 205.121 587 204.988 587H201.308C201.175 587 201.055 586.96 200.948 586.88C200.868 586.773 200.828 586.653 200.828 586.52V575.08C200.828 574.947 200.761 574.88 200.628 574.88H190.428C190.295 574.88 190.228 574.947 190.228 575.08V586.52C190.228 586.653 190.175 586.773 190.068 586.88C189.988 586.96 189.881 587 189.748 587H186.068C185.935 587 185.815 586.96 185.708 586.88C185.628 586.773 185.588 586.653 185.588 586.52V559.48C185.588 559.347 185.628 559.24 185.708 559.16C185.815 559.053 185.935 559 186.068 559H189.748C189.881 559 189.988 559.053 190.068 559.16C190.175 559.24 190.228 559.347 190.228 559.48V570.68C190.228 570.813 190.295 570.88 190.428 570.88H200.628C200.761 570.88 200.828 570.813 200.828 570.68V559.48ZM211.537 587C211.403 587 211.283 586.96 211.177 586.88C211.097 586.773 211.057 586.653 211.057 586.52V559.48C211.057 559.347 211.097 559.24 211.177 559.16C211.283 559.053 211.403 559 211.537 559H215.217C215.35 559 215.457 559.053 215.537 559.16C215.643 559.24 215.697 559.347 215.697 559.48V586.52C215.697 586.653 215.643 586.773 215.537 586.88C215.457 586.96 215.35 587 215.217 587H211.537ZM237.805 559.48C237.805 559.347 237.845 559.24 237.925 559.16C238.032 559.053 238.152 559 238.285 559H241.965C242.099 559 242.205 559.053 242.285 559.16C242.392 559.24 242.445 559.347 242.445 559.48V586.52C242.445 586.653 242.392 586.773 242.285 586.88C242.205 586.96 242.099 587 241.965 587H238.405C238.139 587 237.952 586.893 237.845 586.68L226.325 567.8C226.272 567.72 226.219 567.693 226.165 567.72C226.112 567.72 226.085 567.773 226.085 567.88L226.165 586.52C226.165 586.653 226.112 586.773 226.005 586.88C225.925 586.96 225.819 587 225.685 587H222.005C221.872 587 221.752 586.96 221.645 586.88C221.565 586.773 221.525 586.653 221.525 586.52V559.48C221.525 559.347 221.565 559.24 221.645 559.16C221.752 559.053 221.872 559 222.005 559H225.565C225.832 559 226.019 559.107 226.125 559.32L237.605 578.2C237.659 578.28 237.712 578.32 237.765 578.32C237.819 578.293 237.845 578.227 237.845 578.12L237.805 559.48ZM266.892 562.52C266.892 562.653 266.838 562.773 266.732 562.88C266.652 562.96 266.545 563 266.412 563H252.772C252.638 563 252.572 563.067 252.572 563.2V570.68C252.572 570.813 252.638 570.88 252.772 570.88H261.932C262.065 570.88 262.172 570.933 262.252 571.04C262.358 571.12 262.412 571.227 262.412 571.36V574.4C262.412 574.533 262.358 574.653 262.252 574.76C262.172 574.84 262.065 574.88 261.932 574.88H252.772C252.638 574.88 252.572 574.947 252.572 575.08V582.8C252.572 582.933 252.638 583 252.772 583H266.412C266.545 583 266.652 583.053 266.732 583.16C266.838 583.24 266.892 583.347 266.892 583.48V586.52C266.892 586.653 266.838 586.773 266.732 586.88C266.652 586.96 266.545 587 266.412 587H248.412C248.278 587 248.158 586.96 248.052 586.88C247.972 586.773 247.932 586.653 247.932 586.52V559.48C247.932 559.347 247.972 559.24 248.052 559.16C248.158 559.053 248.278 559 248.412 559H266.412C266.545 559 266.652 559.053 266.732 559.16C266.838 559.24 266.892 559.347 266.892 559.48V562.52ZM297.651 559.32C297.785 559.107 297.971 559 298.211 559H301.891C302.025 559 302.131 559.053 302.211 559.16C302.318 559.24 302.371 559.347 302.371 559.48V586.52C302.371 586.653 302.318 586.773 302.211 586.88C302.131 586.96 302.025 587 301.891 587H298.211C298.078 587 297.958 586.96 297.851 586.88C297.771 586.773 297.731 586.653 297.731 586.52V567.44C297.731 567.36 297.691 567.307 297.611 567.28C297.558 567.253 297.518 567.28 297.491 567.36L292.491 575.04C292.358 575.253 292.171 575.36 291.931 575.36H290.091C289.851 575.36 289.665 575.253 289.531 575.04L284.491 567.4C284.465 567.32 284.411 567.293 284.331 567.32C284.278 567.347 284.251 567.4 284.251 567.48V586.52C284.251 586.653 284.198 586.773 284.091 586.88C284.011 586.96 283.905 587 283.771 587H280.091C279.958 587 279.838 586.96 279.731 586.88C279.651 586.773 279.611 586.653 279.611 586.52V559.48C279.611 559.347 279.651 559.24 279.731 559.16C279.838 559.053 279.958 559 280.091 559H283.771C284.011 559 284.198 559.107 284.331 559.32L290.851 569.2C290.905 569.253 290.958 569.28 291.011 569.28C291.065 569.28 291.105 569.253 291.131 569.2L297.651 559.32ZM317.685 587.4C315.685 587.4 313.912 587 312.365 586.2C310.818 585.373 309.618 584.213 308.765 582.72C307.938 581.227 307.525 579.507 307.525 577.56V568.44C307.525 566.52 307.952 564.827 308.805 563.36C309.658 561.867 310.845 560.72 312.365 559.92C313.912 559.093 315.685 558.68 317.685 558.68C319.712 558.68 321.485 559.093 323.005 559.92C324.552 560.72 325.752 561.867 326.605 563.36C327.458 564.827 327.885 566.52 327.885 568.44V577.56C327.885 579.507 327.458 581.227 326.605 582.72C325.752 584.213 324.552 585.373 323.005 586.2C321.485 587 319.712 587.4 317.685 587.4ZM317.685 583.4C319.365 583.4 320.712 582.88 321.725 581.84C322.738 580.8 323.245 579.427 323.245 577.72V568.4C323.245 566.667 322.738 565.28 321.725 564.24C320.712 563.2 319.365 562.68 317.685 562.68C316.032 562.68 314.698 563.2 313.685 564.24C312.672 565.28 312.165 566.667 312.165 568.4V577.72C312.165 579.427 312.672 580.8 313.685 581.84C314.698 582.88 316.032 583.4 317.685 583.4ZM339.82 587C339.553 587 339.38 586.867 339.3 586.6L330.9 559.56L330.86 559.4C330.86 559.133 331.007 559 331.3 559H335.26C335.553 559 335.74 559.133 335.82 559.4L341.82 580.28C341.847 580.36 341.887 580.4 341.94 580.4C341.993 580.4 342.033 580.36 342.06 580.28L348.02 559.4C348.1 559.133 348.287 559 348.58 559H352.46C352.62 559 352.74 559.053 352.82 559.16C352.9 559.267 352.913 559.4 352.86 559.56L344.34 586.6C344.26 586.867 344.087 587 343.82 587H339.82ZM357.474 587C357.341 587 357.221 586.96 357.114 586.88C357.034 586.773 356.994 586.653 356.994 586.52V559.48C356.994 559.347 357.034 559.24 357.114 559.16C357.221 559.053 357.341 559 357.474 559H361.154C361.288 559 361.394 559.053 361.474 559.16C361.581 559.24 361.634 559.347 361.634 559.48V586.52C361.634 586.653 361.581 586.773 361.474 586.88C361.394 586.96 361.288 587 361.154 587H357.474ZM383.743 559.48C383.743 559.347 383.783 559.24 383.863 559.16C383.97 559.053 384.09 559 384.223 559H387.903C388.036 559 388.143 559.053 388.223 559.16C388.33 559.24 388.383 559.347 388.383 559.48V586.52C388.383 586.653 388.33 586.773 388.223 586.88C388.143 586.96 388.036 587 387.903 587H384.343C384.076 587 383.89 586.893 383.783 586.68L372.263 567.8C372.21 567.72 372.156 567.693 372.103 567.72C372.05 567.72 372.023 567.773 372.023 567.88L372.103 586.52C372.103 586.653 372.05 586.773 371.943 586.88C371.863 586.96 371.756 587 371.623 587H367.943C367.81 587 367.69 586.96 367.583 586.88C367.503 586.773 367.463 586.653 367.463 586.52V559.48C367.463 559.347 367.503 559.24 367.583 559.16C367.69 559.053 367.81 559 367.943 559H371.503C371.77 559 371.956 559.107 372.063 559.32L383.543 578.2C383.596 578.28 383.65 578.32 383.703 578.32C383.756 578.293 383.783 578.227 383.783 578.12L383.743 559.48ZM403.581 587.32C401.581 587.32 399.821 586.933 398.301 586.16C396.781 585.36 395.607 584.24 394.781 582.8C393.954 581.36 393.541 579.707 393.541 577.84V568.16C393.541 566.267 393.954 564.613 394.781 563.2C395.607 561.76 396.781 560.653 398.301 559.88C399.821 559.08 401.581 558.68 403.581 558.68C405.554 558.68 407.287 559.067 408.781 559.84C410.301 560.613 411.474 561.667 412.301 563C413.127 564.333 413.541 565.84 413.541 567.52V567.84C413.541 567.973 413.487 568.093 413.381 568.2C413.301 568.28 413.194 568.32 413.061 568.32H409.421C409.287 568.32 409.167 568.28 409.061 568.2C408.981 568.093 408.941 567.973 408.941 567.84V567.64C408.941 566.2 408.447 565.013 407.461 564.08C406.501 563.147 405.207 562.68 403.581 562.68C401.954 562.68 400.647 563.173 399.661 564.16C398.674 565.12 398.181 566.4 398.181 568V578C398.181 579.6 398.701 580.893 399.741 581.88C400.781 582.84 402.127 583.32 403.781 583.32C405.381 583.32 406.634 582.907 407.541 582.08C408.474 581.227 408.941 580.067 408.941 578.6V576.12C408.941 575.987 408.874 575.92 408.741 575.92H403.821C403.687 575.92 403.567 575.88 403.461 575.8C403.381 575.693 403.341 575.573 403.341 575.44V572.48C403.341 572.347 403.381 572.24 403.461 572.16C403.567 572.053 403.687 572 403.821 572H413.061C413.194 572 413.301 572.053 413.381 572.16C413.487 572.24 413.541 572.347 413.541 572.48V577.6C413.541 580.667 412.634 583.053 410.821 584.76C409.034 586.467 406.621 587.32 403.581 587.32Z" fill="white"/>
<defs>
<clipPath id="paint2_angular_169_23_clip_path"><path d="M242.972 336.364L235.713 339.725C234.896 337.962 235.586 336.782 235.378 337.23C235.189 337.637 234.572 338.609 233.137 340.022C230.32 342.797 225.587 346.068 219.556 348.861L222.918 356.12L226.28 363.38C233.529 360.022 239.925 355.795 244.366 351.42C246.561 349.258 248.605 346.741 249.895 343.958C251.165 341.217 252.151 337.146 250.231 333.002L242.972 336.364ZM222.918 356.12L219.556 348.861C213.525 351.654 207.969 353.149 204.03 353.502C202.024 353.682 200.884 353.524 200.452 353.405C199.975 353.273 201.321 353.51 202.138 355.274L194.879 358.636L187.62 361.998C189.539 366.142 193.281 368.024 196.194 368.828C199.15 369.644 202.392 369.713 205.46 369.438C211.669 368.881 219.03 366.737 226.28 363.38L222.918 356.12ZM194.879 358.636L202.138 355.274C202.955 357.038 202.265 358.218 202.473 357.77C202.662 357.363 203.279 356.391 204.713 354.978C207.531 352.202 212.264 348.932 218.295 346.139L214.933 338.879L211.571 331.62C204.322 334.977 197.926 339.205 193.485 343.58C191.29 345.742 189.246 348.259 187.956 351.041C186.686 353.783 185.7 357.854 187.62 361.998L194.879 358.636ZM214.933 338.879L218.295 346.139C224.326 343.346 229.882 341.851 233.821 341.498C235.827 341.318 236.967 341.475 237.399 341.595C237.876 341.726 236.53 341.489 235.713 339.725L242.972 336.364L250.231 333.002C248.312 328.857 244.57 326.976 241.657 326.172C238.701 325.356 235.459 325.286 232.391 325.562C226.182 326.119 218.821 328.263 211.571 331.62L214.933 338.879Z"/></clipPath><clipPath id="paint3_angular_169_23_clip_path"><path d="M198.582 364.509L191.323 367.871C190.472 366.034 191.394 365 190.839 366.048C190.358 366.958 189.204 368.49 187.038 370.489C182.774 374.423 175.915 378.954 167.443 382.878L170.805 390.137L174.167 397.396C183.724 392.97 192.098 387.59 197.888 382.248C200.748 379.609 203.326 376.662 204.983 373.528C206.568 370.531 208.036 365.886 205.841 361.147L198.582 364.509ZM170.805 390.137L167.443 382.878C158.971 386.801 151.079 389.101 145.321 389.808C142.395 390.168 140.481 390.057 139.475 389.835C138.318 389.58 139.702 389.546 140.553 391.383L133.293 394.745L126.034 398.107C128.229 402.846 132.721 404.731 136.031 405.46C139.494 406.223 143.409 406.163 147.272 405.689C155.091 404.729 164.61 401.822 174.167 397.396L170.805 390.137ZM133.293 394.745L140.553 391.383C141.403 393.22 140.482 394.253 141.036 393.206C141.517 392.295 142.671 390.763 144.838 388.764C149.101 384.831 155.96 380.299 164.432 376.376L161.07 369.116L157.708 361.857C148.151 366.283 139.778 371.663 133.988 377.005C131.128 379.644 128.55 382.591 126.892 385.726C125.307 388.723 123.839 393.368 126.034 398.107L133.293 394.745ZM161.07 369.116L164.432 376.376C172.904 372.452 180.796 370.152 186.554 369.445C189.48 369.086 191.395 369.196 192.4 369.418C193.558 369.673 192.173 369.707 191.323 367.871L198.582 364.509L205.841 361.147C203.647 356.408 199.155 354.523 195.844 353.793C192.381 353.03 188.466 353.09 184.604 353.564C176.785 354.525 167.265 357.431 157.708 361.857L161.07 369.116Z"/></clipPath><clipPath id="paint4_angular_169_23_clip_path"><path d="M373.229 380.461L365.486 378.447C364.592 381.884 367.025 383.463 365.769 382.245C365.038 381.537 363.464 380.387 360.803 378.968C355.596 376.193 347.76 373.194 338.569 370.802L340.583 363.06L342.597 355.318C352.635 357.929 361.721 361.327 368.329 364.849C371.576 366.579 374.633 368.554 376.906 370.758C378.655 372.453 382.465 376.734 380.971 382.475L373.229 380.461ZM340.583 363.06L338.569 370.802C329.378 368.411 321.074 367.211 315.174 367.097C312.159 367.039 310.224 367.276 309.241 367.538C307.551 367.99 310.444 367.796 311.339 364.359L303.596 362.345L295.854 360.33C297.348 354.589 302.761 352.708 305.113 352.08C308.173 351.263 311.805 351.029 315.483 351.1C322.97 351.245 332.56 352.706 342.597 355.318L340.583 363.06ZM303.596 362.345L311.339 364.359C312.233 360.922 309.8 359.343 311.056 360.561C311.787 361.269 313.361 362.419 316.022 363.837C321.229 366.613 329.065 369.612 338.256 372.003L336.242 379.746L334.228 387.488C324.19 384.876 315.104 381.479 308.496 377.957C305.249 376.226 302.192 374.252 299.919 372.047C298.17 370.352 294.36 366.072 295.854 360.33L303.596 362.345ZM336.242 379.746L338.256 372.003C347.447 374.394 355.751 375.594 361.651 375.709C364.666 375.767 366.601 375.53 367.584 375.267C369.274 374.816 366.381 375.009 365.486 378.447L373.229 380.461L380.971 382.475C379.477 388.216 374.064 390.097 371.712 390.726C368.652 391.543 365.02 391.777 361.342 391.706C353.855 391.561 344.265 390.099 334.228 387.488L336.242 379.746Z"/></clipPath><clipPath id="paint5_angular_169_23_clip_path"><path d="M433.229 405.461L425.486 403.447C424.592 406.884 427.025 408.463 425.769 407.245C425.038 406.537 423.464 405.387 420.803 403.968C415.596 401.193 407.76 398.194 398.569 395.802L400.583 388.06L402.597 380.318C412.635 382.929 421.721 386.327 428.329 389.849C431.576 391.579 434.633 393.554 436.906 395.758C438.655 397.453 442.465 401.734 440.971 407.475L433.229 405.461ZM400.583 388.06L398.569 395.802C389.378 393.411 381.074 392.211 375.174 392.097C372.159 392.039 370.224 392.276 369.241 392.538C367.551 392.99 370.444 392.796 371.339 389.359L363.596 387.345L355.854 385.33C357.348 379.589 362.761 377.708 365.113 377.08C368.173 376.263 371.805 376.029 375.483 376.1C382.97 376.245 392.56 377.706 402.597 380.318L400.583 388.06ZM363.596 387.345L371.339 389.359C372.233 385.922 369.8 384.343 371.056 385.561C371.787 386.269 373.361 387.419 376.022 388.837C381.229 391.613 389.065 394.612 398.256 397.003L396.242 404.746L394.228 412.488C384.19 409.876 375.104 406.479 368.496 402.957C365.249 401.226 362.192 399.252 359.919 397.047C358.17 395.352 354.36 391.072 355.854 385.33L363.596 387.345ZM396.242 404.746L398.256 397.003C407.447 399.394 415.751 400.594 421.651 400.709C424.666 400.767 426.601 400.53 427.584 400.267C429.274 399.816 426.381 400.009 425.486 403.447L433.229 405.461L440.971 407.475C439.477 413.216 434.064 415.097 431.712 415.726C428.652 416.543 425.02 416.777 421.342 416.706C413.855 416.561 404.265 415.099 394.228 412.488L396.242 404.746Z"/></clipPath><clipPath id="paint6_angular_169_23_clip_path"><path d="M493.229 430.461L485.486 428.447C484.592 431.884 487.025 433.463 485.769 432.245C485.038 431.537 483.464 430.387 480.803 428.968C475.596 426.193 467.76 423.194 458.569 420.802L460.583 413.06L462.597 405.318C472.635 407.929 481.721 411.327 488.329 414.849C491.576 416.579 494.633 418.554 496.906 420.758C498.655 422.453 502.465 426.734 500.971 432.475L493.229 430.461ZM460.583 413.06L458.569 420.802C449.378 418.411 441.074 417.211 435.174 417.097C432.159 417.039 430.224 417.276 429.241 417.538C427.551 417.99 430.444 417.796 431.339 414.359L423.596 412.345L415.854 410.33C417.348 404.589 422.761 402.708 425.113 402.08C428.173 401.263 431.805 401.029 435.483 401.1C442.97 401.245 452.56 402.706 462.597 405.318L460.583 413.06ZM423.596 412.345L431.339 414.359C432.233 410.922 429.8 409.343 431.056 410.561C431.787 411.269 433.361 412.419 436.022 413.837C441.229 416.613 449.065 419.612 458.256 422.003L456.242 429.746L454.228 437.488C444.19 434.876 435.104 431.479 428.496 427.957C425.249 426.226 422.192 424.252 419.919 422.047C418.17 420.352 414.36 416.072 415.854 410.33L423.596 412.345ZM456.242 429.746L458.256 422.003C467.447 424.394 475.751 425.594 481.651 425.709C484.666 425.767 486.601 425.53 487.584 425.267C489.274 424.816 486.381 425.009 485.486 428.447L493.229 430.461L500.971 432.475C499.477 438.216 494.064 440.097 491.712 440.726C488.652 441.543 485.02 441.777 481.342 441.706C473.855 441.561 464.265 440.099 454.228 437.488L456.242 429.746Z"/></clipPath><clipPath id="paint7_angular_169_23_clip_path"><path d="M557.317 455.947L549.575 453.933C548.927 456.423 549.971 458.153 550.16 458.438C550.367 458.752 550.355 458.612 549.663 458.069C548.329 457.024 545.873 455.562 542.185 453.842C534.929 450.458 524.317 446.721 512.113 443.546L514.127 435.803L516.142 428.061C528.989 431.404 540.572 435.435 548.948 439.341C553.075 441.266 556.795 443.331 559.532 445.476C560.875 446.528 562.373 447.9 563.507 449.615C564.621 451.3 566.007 454.319 565.06 457.962L557.317 455.947ZM514.127 435.803L512.113 443.546C499.909 440.37 488.822 438.462 480.836 437.881C476.777 437.586 473.921 437.665 472.246 437.928C471.377 438.064 471.298 438.181 471.633 438.008C471.936 437.851 473.691 436.849 474.339 434.359L466.596 432.345L458.854 430.33C459.802 426.688 462.483 424.727 464.278 423.798C466.103 422.854 468.08 422.386 469.766 422.122C473.201 421.582 477.455 421.593 481.997 421.923C491.215 422.594 503.294 424.719 516.142 428.061L514.127 435.803ZM466.596 432.345L474.339 434.359C474.986 431.869 473.942 430.139 473.754 429.854C473.546 429.54 473.558 429.68 474.251 430.223C475.585 431.268 478.04 432.73 481.729 434.45C488.985 437.835 499.596 441.571 511.801 444.747L509.786 452.489L507.772 460.231C494.924 456.889 483.341 452.857 474.966 448.951C470.838 447.026 467.119 444.961 464.382 442.816C463.038 441.764 461.54 440.392 460.407 438.678C459.293 436.992 457.906 433.973 458.854 430.33L466.596 432.345ZM509.786 452.489L511.801 444.747C524.005 447.922 535.092 449.83 543.077 450.411C547.137 450.707 549.993 450.627 551.668 450.364C552.537 450.228 552.615 450.111 552.281 450.284C551.977 450.441 550.223 451.443 549.575 453.933L557.317 455.947L565.06 457.962C564.112 461.604 561.43 463.565 559.636 464.494C557.81 465.439 555.834 465.906 554.148 466.171C550.712 466.71 546.458 466.699 541.916 466.369C532.699 465.698 520.62 463.574 507.772 460.231L509.786 452.489Z"/></clipPath><clipPath id="paint8_angular_169_23_clip_path"><path d="M136.121 398.727L128.862 402.089C128.011 400.253 128.933 399.219 128.379 400.267C127.897 401.177 126.743 402.709 124.577 404.708C120.313 408.641 113.454 413.173 104.982 417.097L108.344 424.356L111.706 431.615C121.263 427.189 129.637 421.809 135.427 416.467C138.287 413.828 140.865 410.881 142.522 407.747C144.107 404.75 145.575 400.105 143.381 395.366L136.121 398.727ZM108.344 424.356L104.982 417.097C96.5103 421.02 88.618 423.32 82.8602 424.027C79.9343 424.387 78.02 424.276 77.0142 424.054C75.8566 423.799 77.241 423.765 78.0916 425.602L70.8323 428.963L63.573 432.325C65.7677 437.064 70.2596 438.949 73.5704 439.679C77.0332 440.442 80.9484 440.382 84.8108 439.908C92.6296 438.947 102.149 436.041 111.706 431.615L108.344 424.356ZM70.8323 428.963L78.0916 425.602C78.9423 427.438 78.0208 428.472 78.575 427.424C79.0565 426.514 80.2101 424.982 82.3767 422.983C86.6403 419.049 93.4991 414.518 101.971 410.594L98.6093 403.335L95.2474 396.076C85.6904 400.502 77.3166 405.882 71.527 411.224C68.6669 413.863 66.0887 416.81 64.4311 419.944C62.8461 422.941 61.3783 427.586 63.573 432.325L70.8323 428.963ZM98.6093 403.335L101.971 410.594C110.443 406.671 118.336 404.371 124.093 403.664C127.019 403.304 128.934 403.415 129.939 403.637C131.097 403.892 129.713 403.926 128.862 402.089L136.121 398.727L143.381 395.366C141.186 390.626 136.694 388.742 133.383 388.012C129.92 387.249 126.005 387.309 122.143 387.783C114.324 388.744 104.804 391.65 95.2474 396.076L98.6093 403.335Z"/></clipPath><clipPath id="paint9_angular_169_23_clip_path"><path d="M73.6603 432.946L66.401 436.308C65.5503 434.471 66.4718 433.437 65.9176 434.485C65.4361 435.396 64.2825 436.927 62.1159 438.926C57.8523 442.86 50.9935 447.392 42.5214 451.315L45.8833 458.575L49.2452 465.834C58.8022 461.408 67.176 456.028 72.9657 450.686C75.8257 448.047 78.4039 445.1 80.0615 441.965C81.6465 438.968 83.1144 434.323 80.9196 429.584L73.6603 432.946ZM45.8833 458.575L42.5214 451.315C34.0494 455.239 26.1571 457.539 20.3992 458.246C17.4733 458.605 15.559 458.494 14.5533 458.273C13.3957 458.018 14.7801 457.984 15.6307 459.82L8.37139 463.182L1.11207 466.544C3.30681 471.283 7.79865 473.168 11.1095 473.898C14.5722 474.661 18.4875 474.601 22.3499 474.127C30.1687 473.166 39.6882 470.26 49.2452 465.834L45.8833 458.575ZM8.37139 463.182L15.6307 459.82C16.4813 461.657 15.5599 462.691 16.1141 461.643C16.5955 460.733 17.7492 459.201 19.9158 457.202C24.1794 453.268 31.0382 448.737 39.5102 444.813L36.1484 437.554L32.7865 430.295C23.2295 434.72 14.8557 440.101 9.06601 445.443C6.20595 448.081 3.62779 451.029 1.97014 454.163C0.385185 457.16 -1.08268 461.805 1.11207 466.544L8.37139 463.182ZM36.1484 437.554L39.5102 444.813C47.9823 440.89 55.8746 438.59 61.6325 437.883C64.5584 437.523 66.4726 437.634 67.4784 437.856C68.636 438.111 67.2516 438.145 66.401 436.308L73.6603 432.946L80.9196 429.584C78.7249 424.845 74.233 422.96 70.9222 422.231C67.4595 421.467 63.5442 421.527 59.6818 422.002C51.863 422.962 42.3435 425.869 32.7865 430.295L36.1484 437.554Z"/></clipPath><linearGradient id="paint0_linear_169_23" x1="280.426" y1="448" x2="280.426" y2="631" gradientUnits="userSpaceOnUse">
<stop offset="0.1875" stop-color="#1976D2"/>
<stop offset="0.903846" stop-color="#0D3D6C"/>
</linearGradient>
<linearGradient id="paint1_linear_169_23" x1="237.426" y1="0" x2="237.426" y2="388.034" gradientUnits="userSpaceOnUse">
<stop stop-color="#1565C0"/>
<stop offset="1" stop-color="#0A2F5A"/>
</linearGradient>
</defs>
</svg>
